<svg width="10" height="10" viewBox="0 0 10 10" fill="none" xmlns="http://www.w3.org/2000/svg">
<path d="M4.03665 5.00211L7.77762 1.26098C7.88063 1.15821 7.9373 1.02081 7.9373 0.874309C7.9373 0.727724 7.88063 0.590406 7.77762 0.48748L7.44982 0.159837C7.34697 0.056748 7.20949 0 7.06299 0C6.91649 0 6.77917 0.056748 6.67624 0.159837L2.22201 4.61398C2.11868 4.71724 2.0621 4.8552 2.0625 5.00187C2.0621 5.14919 2.1186 5.28699 2.22201 5.39033L6.6721 9.84016C6.77502 9.94325 6.91234 10 7.05892 10C7.20543 10 7.34275 9.94325 7.44575 9.84016L7.77348 9.51252C7.98673 9.29927 7.98673 8.95211 7.77348 8.73894L4.03665 5.00211Z" fill="#979CA6"/>
</svg>
