<svg width="10" height="10" viewBox="0 0 10 10" fill="none" xmlns="http://www.w3.org/2000/svg">
<g clip-path="url(#clip0)">
<path d="M5.96335 4.99789L2.22238 8.73902C2.11937 8.84179 2.0627 8.97919 2.0627 9.12569C2.0627 9.27228 2.11937 9.40959 2.22238 9.51252L2.55018 9.84016C2.65303 9.94325 2.79051 10 2.93701 10C3.08351 10 3.22083 9.94325 3.32376 9.84016L7.77799 5.38602C7.88132 5.28276 7.9379 5.1448 7.9375 4.99813C7.9379 4.85081 7.8814 4.71301 7.77799 4.60967L3.32791 0.159838C3.22498 0.0567482 3.08766 -5.14574e-08 2.94108 -6.42723e-08C2.79457 -7.70801e-08 2.65725 0.0567482 2.55425 0.159838L2.22652 0.48748C2.01327 0.700732 2.01327 1.04789 2.22652 1.26106L5.96335 4.99789Z" fill="#979CA6"/>
</g>
<defs>
<clipPath id="clip0">
<rect width="10" height="10" fill="white" transform="translate(10 10) rotate(-180)"/>
</clipPath>
</defs>
</svg>
