<svg width="28" height="22" viewBox="0 0 28 22" fill="none" xmlns="http://www.w3.org/2000/svg">
<path d="M6.81332 10.0667C5.82701 10.07 4.85815 10.3271 3.99999 10.8133C5.20819 7.68601 7.21207 4.92838 9.81332 2.81334C9.96216 2.69077 10.0854 2.54009 10.176 2.3699C10.2666 2.1997 10.3228 2.01333 10.3413 1.82143C10.3599 1.62952 10.3405 1.43583 10.2842 1.25142C10.2279 1.06702 10.1359 0.895503 10.0133 0.746671C9.89076 0.59784 9.74008 0.474606 9.56988 0.384008C9.39969 0.29341 9.21332 0.237221 9.02141 0.21865C8.8295 0.200078 8.63582 0.219488 8.45141 0.27577C8.267 0.332051 8.09549 0.424103 7.94666 0.54667C2.61332 4.88 0.23999 10.88 0.23999 14.6C0.24918 15.9153 0.64115 17.1995 1.36804 18.2958C2.09494 19.392 3.1253 20.2529 4.33332 20.7733C5.11514 21.1521 5.9713 21.3525 6.83999 21.36C7.6046 21.3972 8.3688 21.2787 9.08625 21.0117C9.80369 20.7447 10.4594 20.3347 11.0137 19.8067C11.568 19.2787 12.0093 18.6437 12.3108 17.94C12.6123 17.2364 12.7678 16.4789 12.7678 15.7133C12.7678 14.9478 12.6123 14.1903 12.3108 13.4866C12.0093 12.783 11.568 12.1479 11.0137 11.6199C10.4594 11.0919 9.80369 10.682 9.08625 10.415C8.3688 10.148 7.6046 10.0295 6.83999 10.0667H6.81332Z" fill="#89A2FA"/>
<path d="M21.6666 10.0667C20.6801 10.0688 19.711 10.326 18.8533 10.8133C20.061 7.68927 22.0596 4.93256 24.6533 2.81332C24.8156 2.6963 24.9523 2.5473 25.0549 2.37549C25.1575 2.20367 25.2238 2.01268 25.2499 1.81426C25.2759 1.61584 25.261 1.4142 25.2062 1.22173C25.1514 1.02927 25.0578 0.850065 24.9311 0.695142C24.8044 0.540219 24.6474 0.412856 24.4696 0.320895C24.2919 0.228933 24.0972 0.174317 23.8976 0.160408C23.698 0.146498 23.4976 0.173589 23.3088 0.240014C23.12 0.306439 22.9469 0.410793 22.7999 0.546652C17.4666 4.87999 15.0933 10.88 15.0933 14.6C15.0996 15.9004 15.4801 17.1715 16.1894 18.2615C16.8987 19.3515 17.9068 20.2142 19.0933 20.7467C19.8949 21.1365 20.7752 21.3372 21.6666 21.3333C22.4312 21.3705 23.1954 21.252 23.9129 20.985C24.6303 20.718 25.286 20.3081 25.8403 19.7801C26.3946 19.2521 26.8359 18.617 27.1374 17.9133C27.4389 17.2097 27.5944 16.4522 27.5944 15.6867C27.5944 14.9211 27.4389 14.1636 27.1374 13.46C26.8359 12.7563 26.3946 12.1213 25.8403 11.5933C25.286 11.0653 24.6303 10.6553 23.9129 10.3883C23.1954 10.1213 22.4312 10.0028 21.6666 10.04V10.0667Z" fill="#89A2FA"/>
</svg>
