<svg width="16" height="16" viewBox="0 0 16 16" fill="none" xmlns="http://www.w3.org/2000/svg">
<path d="M14.9422 7.79111C13.4444 5.02222 10.8177 3.34666 7.91107 3.34666C5.0044 3.34666 2.37329 5.02222 0.888849 7.79111L0.764404 8L0.87996 8.21333C2.37774 10.9822 5.0044 12.6578 7.91107 12.6578C10.8177 12.6578 13.4488 11.0044 14.9422 8.21333L15.0577 8L14.9422 7.79111ZM7.91107 11.7467C5.40885 11.7467 3.11107 10.3511 1.77774 8C3.11107 5.64889 5.40885 4.25333 7.91107 4.25333C10.4133 4.25333 12.6844 5.65333 14.04 8C12.6844 10.3511 10.4088 11.7467 7.91107 11.7467Z" fill="#A3A3A3"/>
<path d="M8.04007 4.96444C7.43745 4.96884 6.84966 5.15172 6.35092 5.48999C5.85218 5.82826 5.46488 6.30674 5.23792 6.865C5.01096 7.42325 4.95453 8.03625 5.07575 8.62656C5.19698 9.21688 5.49042 9.75802 5.91902 10.1817C6.34761 10.6053 6.89214 10.8924 7.48383 11.0068C8.07551 11.1211 8.68781 11.0575 9.24338 10.8241C9.79896 10.5906 10.2729 10.1978 10.6053 9.69515C10.9378 9.19251 11.1138 8.60262 11.1112 8C11.1094 7.59886 11.0285 7.20201 10.8732 6.83219C10.7178 6.46236 10.4909 6.12684 10.2056 5.84485C9.92032 5.56285 9.58218 5.33993 9.21057 5.18885C8.83897 5.03778 8.4412 4.96152 8.04007 4.96444ZM8.04007 10.1733C7.6144 10.1689 7.19952 10.0389 6.84754 9.79947C6.49555 9.56006 6.22216 9.22199 6.06169 8.82771C5.90121 8.43343 5.86082 8.00052 5.94558 7.58335C6.03035 7.16619 6.23648 6.78337 6.5381 6.48298C6.83972 6.18259 7.22338 5.97802 7.64088 5.89496C8.05839 5.8119 8.49113 5.85406 8.88475 6.01614C9.27837 6.17822 9.61533 6.453 9.8533 6.80596C10.0913 7.15892 10.2196 7.57432 10.2223 8C10.2235 8.28649 10.1678 8.57036 10.0584 8.83516C9.94906 9.09996 9.78822 9.34041 9.58523 9.54258C9.38224 9.74474 9.14113 9.9046 8.87589 10.0129C8.61065 10.1211 8.32655 10.1757 8.04007 10.1733Z" fill="#A3A3A3"/>
</svg>
