<svg width="16" height="16" viewBox="0 0 16 16" fill="none" xmlns="http://www.w3.org/2000/svg">
  <path
    d="M7.25776 2.24445C8.22048 2.24358 9.16184 2.52825 9.96274 3.06247C10.7636 3.5967 11.3881 4.35646 11.7571 5.24565C12.1262 6.13484 12.2232 7.1135 12.0359 8.05783C11.8486 9.00217 11.3855 9.86974 10.705 10.5508C10.0246 11.2319 9.15744 11.6958 8.21328 11.8839C7.26912 12.0721 6.29037 11.976 5.40084 11.6078C4.51131 11.2395 3.75098 10.6158 3.21603 9.81536C2.68108 9.01494 2.39554 8.07385 2.39554 7.11112C2.40137 5.82297 2.91538 4.58917 3.82583 3.67788C4.73629 2.7666 5.96961 2.25147 7.25776 2.24445ZM7.25776 1.33334C6.11502 1.33334 4.99795 1.6722 4.0478 2.30707C3.09765 2.94195 2.3571 3.84431 1.91979 4.90006C1.48248 5.95581 1.36806 7.11753 1.591 8.23831C1.81394 9.35909 2.36422 10.3886 3.17225 11.1966C3.98029 12.0047 5.00979 12.5549 6.13057 12.7779C7.25135 13.0008 8.41307 12.8864 9.46882 12.4491C10.5246 12.0118 11.4269 11.2712 12.0618 10.3211C12.6967 9.37093 13.0355 8.25386 13.0355 7.11112C13.0355 5.57876 12.4268 4.10916 11.3433 3.02562C10.2597 1.94207 8.79012 1.33334 7.25776 1.33334Z"
    fill="white"/>
  <path
    d="M15.5556 14.7955L12.28 11.4978L11.6489 12.1244L14.9245 15.4222C14.9656 15.4637 15.0145 15.4966 15.0684 15.5191C15.1223 15.5417 15.1801 15.5534 15.2385 15.5536C15.2969 15.5538 15.3547 15.5425 15.4088 15.5203C15.4628 15.4982 15.5119 15.4656 15.5534 15.4244C15.5948 15.3833 15.6277 15.3344 15.6503 15.2805C15.6728 15.2266 15.6845 15.1688 15.6847 15.1105C15.6849 15.0521 15.6736 14.9942 15.6515 14.9402C15.6293 14.8861 15.5967 14.837 15.5556 14.7955Z"
    fill="white"/>
</svg>
