<svg height="512pt" viewBox="0 0 512 512" width="512pt" xmlns="http://www.w3.org/2000/svg"><path d="m255.765625 271.230469c8.269531 0 14.996094-6.726563 14.996094-14.996094s-6.726563-14.996094-14.996094-14.996094-14.996094 6.726563-14.996094 14.996094 6.726563 14.996094 14.996094 14.996094zm0 0"/><path d="m357.933594 346.214844c22.050781-24.894532 34.195312-56.933594 34.195312-90.214844 0-36.410156-14.191406-70.628906-39.964844-96.347656-25.707031-25.660156-59.847656-39.78125-96.160156-39.78125-.089844 0-.179687 0-.265625 0-75.019531.144531-135.964843 61.292968-135.867187 136.316406.046875 33.292969 12.242187 65.324219 34.34375 90.195312 14.742187 16.589844 22.863281 37.570313 22.863281 59.078126v5.613281h63.714844v-112.472657c-17.4375-6.183593-29.96875-22.835937-29.96875-42.367187 0-24.78125 20.160156-44.941406 44.941406-44.941406s44.9375 20.160156 44.9375 44.941406c0 19.53125-12.527344 36.183594-29.964844 42.367187v112.472657h64.1875v-5.1875c0-21.726563 8.171875-42.917969 23.007813-59.671875zm0 0"/><path d="m177.074219 441.019531h157.851562v70.023438h-157.851562zm0 0"/><path d="m240.792969 0h29.945312v79.902344h-29.945312zm0 0"/><path d="m140.761719 26.925781 39.953125 69.195313-25.933594 14.972656-39.949219-69.195312zm0 0"/><path d="m41.664062 115.234375 69.195313 39.949219-14.972656 25.933594-69.195313-39.953126zm0 0"/><path d="m0 241.261719h79.902344v29.945312h-79.902344zm0 0"/><path d="m41.894531 397.171875-14.972656-25.929687 69.195313-39.953126 14.972656 25.933594zm0 0"/><path d="m470.347656 396.769531-69.195312-39.953125 14.972656-25.929687 69.195312 39.949219zm0 0"/><path d="m432.097656 240.792969h79.902344v29.941406h-79.902344zm0 0"/><path d="m470.101562 114.820312 14.96875 25.929688-69.195312 39.953125-14.972656-25.933594zm0 0"/><path d="m356.816406 110.863281-25.929687-14.96875 39.953125-69.199219 25.929687 14.972657zm0 0"/></svg>